<?xml version="1.0" encoding="UTF-8"?>
<svg version="1.1" viewBox="0 0 2048 1531" width="250" height="187" xmlns="http://www.w3.org/2000/svg">
<path transform="translate(0)" d="m0 0h2048v1531h-2048z" fill="#FDFDFD"/>
<path transform="translate(1162,454)" d="m0 0h156l61 1 1 2-1 62-1 1-221 1-13 1-10 4-10 9-5 8-3 11v12l3 12 5 10 8 8 8 4 14 2h151l22 2 18 5 16 8 10 6 13 11 10 12 9 15 6 14 5 21 1 19-2 16-5 18-8 17-10 14-13 13-11 8-16 8-18 6-11 2-11 1h-257l-1-65 2-1 218-1 42-1 10-2 8-4 7-7 6-12 2-11v-12l-3-9-6-10-8-7-8-4-16-2h-145l-25-2-21-6-16-8-11-7-17-17-9-14-6-12-5-17-2-12v-27l4-21 6-15 6-11 11-14 11-10 14-9 17-8 16-4 7-1z" fill="#3D5A8F"/>
<path transform="translate(736,454)" d="m0 0h157l18 2 19 5 19 9 13 9 15 15 10 14 11 21 5 15 3 14 2 20v29l-2 21-4 17-4 12-9 17-11 14-10 10-14 10-14 8-20 8-15 3-9 1-22 1h-139l-1-66 13-1 140-1 16-3 12-5 10-7 8-11 4-9 3-15v-36l-3-16-5-12-9-12-8-6-12-6-16-2h-133l-27 1-10 4-5 6-2 4-1 6-1 271-1 5h-48l-16-1-1-247 1-40 3-14 6-14 8-12 9-10 9-8 13-8 12-5 12-3z" fill="#3D5A8F"/>
<path transform="translate(1417,941)" d="m0 0h6l3 84 4 12 3 6-1 3-9-2-7-6-1-2h-2l-4 5-8 4-6 1h-10l-10-5-5-5-6-7-4-9-1-4v-16l3-10 6-10 7-6 10-4 10-1 9 2 6 4 3 4v-34l1-3z" fill="#69C7F9"/>
<path transform="translate(463,970)" d="m0 0h9l10 5 5 4 5 7v3h2l3 7 1 5v12l-3 11-8 11-8 7-9 3h-12l-14-7 1 35-2 2h-7l-4-4v-74l-2-13-2-11 1-1h6l5 5 7-1 12-5z" fill="#6AC9FB"/>
<path transform="translate(672,970)" d="m0 0h12l8 4 9 9 5 10 1 7v16l-3 9-5 8-9 9-11 4h-9l-8-3-7-5v33l-3 4h-6l-4-3 1-24v-34l-1-24-2-9-5-6 2-4 6 1 7 5v3l10-6z" fill="#69C6F8"/>
<path transform="translate(1473,970)" d="m0 0h18l18 3 2 4 2 25 1 23 3 10 4 7-1 4-7-1-8-7-1-4-8 7-5 3-9 2h-9l-9-4-9-7-6-10-3-9v-18l4-12 7-9 12-6z" fill="#6AC9FB"/>
<path transform="translate(751,969)" d="m0 0h16l10 5 8 8 6 10 2 7v15l-3 10-7 11-10 8-13 4-10-1-14-7-8-9-5-11-1-7v-13l2-9 5-8 4-5 8-5z" fill="#6AC9FB"/>
<path transform="translate(1658,969)" d="m0 0h8l10 3 9 7 6 8 3 6 1 5v17l-3 10-7 9-7 7-7 4-9 2-11-1-8-4-10-9-6-9-3-9v-16l3-10 5-8 8-7 11-4z" fill="#69C7F9"/>
<path transform="translate(1135,969)" d="m0 0h13l12 6 9 9 5 10 1 4v17l-3 10-6 8-8 8-8 4-4 1h-13l-10-4-10-9-5-7-4-15v-10l4-13 5-8 7-6 10-4z" fill="#6AC9FB"/>
<path transform="translate(282,945)" d="m0 0h28l11 4 9 8 4 9v18l-5 10-7 7-10 5-9 2h-10l-9-3v38l-7 2-5-3v-80l1-14z" fill="#69C8FA"/>
<path transform="translate(377,969)" d="m0 0h12l10 5 7 8 4 8 2 13-1 8-1 1-18 2h-16l-15-1 2 9 5 8 8 4 4 1h10l15-5h3l-1 6-3 5-10 5-5 1h-9l-12-4-8-6-7-8-5-12-1-4 1-16 4-12 6-8 12-6z" fill="#6AC9FB"/>
<path transform="translate(877,951)" d="m0 0 5 1 1 1-1 20h15l6 2 2 2-1 5-3 2h-14l-2 1-2 5v23l1 12 4 8 4 2h7l9-1 1 5-5 5-3 1h-13l-7-4-5-6-4-12-1-7-1-28-8-5-7-2-11 1-9 2-5 5-4 7-1 7v40l-2 2h-8l-4-2v-64l-1-5 1-3h6l11 4h6l7-4h12l9 2h9l1-3v-11l2-6z" fill="#6AC9FB"/>
<path transform="translate(585,944)" d="m0 0h12l16 5 5 3 2 6-4 1-26-4h-7l-8 3-4 5-1 2v9l4 5 10 5 16 6 8 5 8 8 4 7 1 10-6 12-7 7-12 6-4 1h-13l-15-5-8-6-2-5 2-3 6 1 12 5 4 1h15l10-5 4-5 1-7-3-9-14-8-16-7-13-10-4-8v-8l4-10 5-6 10-5z" fill="#6AC9FB"/>
<path transform="translate(1131,981)" d="m0 0h15l8 4 7 8 3 6 1 5v8l-3 9-7 8-9 6-3 1h-7l-8-3-6-5-5-10-2-8v-11l3-8 5-6z" fill="#FEFEFE"/>
<path transform="translate(752,980)" d="m0 0 11 1 10 5 6 8 3 10v10l-3 9-7 7-12 6-9-1-8-4-6-7-4-11v-14l4-9 4-5 7-4z" fill="#FEFEFE"/>
<path transform="translate(1657,980)" d="m0 0 10 1 8 4 6 7 3 8v16l-5 10-8 7-6 3h-9l-10-5-6-7-4-11v-15l3-8 8-7z" fill="#FEFEFE"/>
<path transform="translate(1316,969)" d="m0 0h9l5 3 6 8 4 14 1 10 1 24 1 15-2 2h-8l-4-2-1-48-3-11-6-3h-9l-12 5-4 4-1 3v36l1 15-3 1h-10l-1-2-1-20v-44l1-8 7 1 7 4 6-1 9-4z" fill="#6AC9FB"/>
<path transform="translate(1055,946)" d="m0 0h15l24 1 1 3-3 5-3 2h-35l-6-1-1 32 39-1 1 4-3 6-2 1h-34l-1 46-6 1-5-2-1-1v-94l1-1z" fill="#6AC9FB"/>
<path transform="translate(1194,971)" d="m0 0h10l1 11 1 30 1 11 4 8 5 4h10l10-5 3-4 1-4 1-48 1-2 7-1 3 2 1 7 1 35 2 14 6 13v3l-9-1-11-7-4 2-10 6-6 1h-8l-9-4-5-4-5-11-1-7-1-48z" fill="#69C8FA"/>
<path transform="translate(668,980)" d="m0 0h10l8 3 8 9 3 8v14l-6 12-8 7-7 3h-8l-9-4-4-4-1-4v-33l2-5 6-4z" fill="#FEFEFE"/>
<path transform="translate(460,980)" d="m0 0h9l8 4 7 8 2 5 1 6v10l-3 9-7 8-8 5-7 1-13-4-4-6-1-5v-29l3-5 5-4z" fill="#FEFEFE"/>
<path transform="translate(1472,981)" d="m0 0h17l8 4 3 9v24l-2 8-4 6-7 4h-11l-8-4-7-9-3-9v-17l3-8 7-6z" fill="#FEFEFE"/>
<path transform="translate(1751,970)" d="m0 0h9l7 4 4 9 1 4v7h2l1 16v32h-2v2h-9l-1-51-3-9-3-2-11-1-13 4-5 3-1 10v47h-9l-4-2v-68l1-1 17-1z" fill="#69C8FA"/>
<path transform="translate(1385,980)" d="m0 0h13l8 4 4 5 2 5v23l-3 10-6 7-5 2h-9l-8-5-6-7-4-11v-15l6-12 6-5z" fill="#FEFEFE"/>
<path transform="translate(948,969)" d="m0 0h10l10 3 3 4 1 6h-11l-5-1h-15l-7 2-1 7 2 5 5 2 19 8 9 7 5 9-1 9-7 9-10 6-11 2-10-1-8-5-4-5-1-5 4-1 13 6 10-1 10-4 2-2-1-9-8-5-19-9-8-8-2-7 1-7 5-8 10-5z" fill="#6AC9FB"/>
<path transform="translate(1548,951)" d="m0 0 5 2 1 1v20l15-1 4 2v5l-4 4h-12l-3-2v5l-1 1v33l4 10 5 3 3 1h13l1 5-5 4-5 2h-10l-8-4-7-8-3-10-1-5v-34l-9-3-3-2v-3l9-3 4 1 2-20z" fill="#6AC9FB"/>
<path transform="translate(289,955)" d="m0 0h18l9 3 7 8 2 6v8l-3 6-8 7-9 4h-15l-5-3-1-3v-24l2-10z" fill="#FEFEFE"/>
<path transform="translate(372,981)" d="m0 0h16l7 4 6 9v8l-5 2h-33l-4-4 1-8 5-7z" fill="#FEFEFE"/>
<path transform="translate(1598,970)" d="m0 0h6l1 1 1 45 2 30-8-1-4-2-1-21-1-50z" fill="#6AC9FB"/>
<path transform="translate(1598,944)" d="m0 0h6l3 2-1 7-6 4-5-2-2-2v-7z" fill="#6AC9FB"/>
<path transform="translate(1767,978)" d="m0 0h2l3 9 1 7v10l-4-5-3-7-1-5 2-4z" fill="#3D5A8F"/>
<path transform="translate(331,962)" d="m0 0 3 4v14h-3l-3-4-2 1-1-9 5 2z" fill="#3D5A8F"/>
<path transform="translate(491,988)" d="m0 0 2 1 3 8 1 7-4-2-2-3z" fill="#3D5A8F"/>
<path transform="translate(429,972)" d="m0 0h4l-1 11-3-4-1-6z" fill="#3D5A8F"/>
<path transform="translate(1598,944)" d="m0 0h6v3l-9 1-1 2 1-4z" fill="#3D5A8F"/>
</svg>
