<svg version="1.2" xmlns="http://www.w3.org/2000/svg" viewBox="0 0 135 75" width="135" height="75"><style>.a{fill:#fdfdfd}.b{fill:#3d5a8f}.c{fill:#69c7f9}.d{fill:#6ac9fb}.e{fill:#69c6f8}.f{fill:#69c8fa}.g{fill:#fefefe}</style><path fill-rule="evenodd" class="a" d="m155.6-28.9v132h-176.3v-132z"/><path class="b" d="m79.3 10.3h13.5 5.2l0.1 0.2-0.1 5.4h-0.1l-19 0.1-1.1 0.1-0.9 0.4-0.8 0.7-0.5 0.7-0.2 1v1l0.2 1 0.5 0.9 0.6 0.7 0.7 0.3 1.2 0.2h13l1.9 0.2 1.6 0.4 1.4 0.7 0.8 0.5 1.1 1 0.9 1 0.8 1.3 0.5 1.2 0.4 1.8 0.1 1.7-0.2 1.3-0.4 1.6-0.7 1.5-0.9 1.2-1.1 1.1-0.9 0.7-1.4 0.7-1.5 0.5-1 0.2h-0.9-22.1l-0.1-5.6 0.1-0.1h18.8l3.6-0.1 0.9-0.2 0.7-0.3 0.6-0.6 0.5-1.1 0.1-0.9v-1.1l-0.2-0.7-0.5-0.9-0.7-0.6-0.7-0.3-1.4-0.2h-12.5l-2.1-0.2-1.8-0.5-1.4-0.7-0.9-0.6-1.5-1.5-0.8-1.2-0.5-1-0.4-1.5-0.2-1v-2.3l0.4-1.8 0.5-1.3 0.5-1 0.9-1.2 1-0.9 1.2-0.7 1.4-0.7 1.4-0.4 0.6-0.1z"/><path class="b" d="m42.7 10.3h13.5l1.5 0.1 1.7 0.5 1.6 0.7 1.1 0.8 1.3 1.3 0.9 1.2 0.9 1.8 0.5 1.3 0.2 1.2 0.2 1.7v2.5l-0.2 1.9-0.3 1.4-0.4 1.1-0.8 1.4-0.9 1.2-0.9 0.9-1.2 0.9-1.2 0.6-1.7 0.7-1.3 0.3-0.8 0.1-1.8 0.1h-12l-0.1-5.7 1.1-0.1 12.1-0.1 1.3-0.3 1.1-0.4 0.8-0.6 0.7-0.9 0.4-0.8 0.2-1.3v-3.1l-0.2-1.4-0.5-1-0.7-1.1-0.7-0.5-1.1-0.5-1.3-0.2h-11.5l-2.3 0.1-0.9 0.4-0.4 0.5-0.2 0.3v0.5l-0.1 23.4-0.1 0.4h-4.1-1.4l-0.1-21.3 0.1-3.5 0.2-1.2 0.5-1.2 0.7-1 0.8-0.9 0.8-0.7 1.1-0.7 1-0.4 1.1-0.3z"/><path class="c" d="m101.3 52.2h0.5l0.2 7.3 0.4 1 0.2 0.5v0.3l-0.8-0.2-0.6-0.5-0.1-0.2h-0.2l-0.3 0.5-0.7 0.3-0.5 0.1h-0.9l-0.8-0.4-0.5-0.5-0.5-0.6-0.3-0.7-0.1-0.4v-1.4l0.2-0.8 0.6-0.9 0.6-0.5 0.8-0.4h0.9l0.8 0.1 0.5 0.4 0.2 0.3v-2.9l0.1-0.3z"/><path class="d" d="m19.2 54.7h0.8l0.8 0.5 0.5 0.3 0.4 0.6v0.3h0.2l0.2 0.6 0.1 0.4v1l-0.3 1-0.6 0.9-0.7 0.6-0.8 0.3h-1l-1.2-0.6v3l-0.1 0.2h-0.6l-0.4-0.4v-6.3l-0.2-1.2-0.1-0.9 0.1-0.1h0.5l0.4 0.4h0.6l1-0.5z"/><path class="e" d="m37.2 54.7h1l0.7 0.4 0.8 0.8 0.4 0.8 0.1 0.6v1.4l-0.3 0.8-0.4 0.7-0.8 0.7-0.9 0.4h-0.8l-0.7-0.3-0.6-0.4v2.8l-0.3 0.4h-0.5l-0.3-0.3 0.1-2v-3l-0.1-2-0.2-0.8-0.4-0.5 0.2-0.4 0.5 0.1 0.6 0.4v0.3l0.8-0.5z"/><path class="d" d="m106.1 54.7h1.5l1.6 0.3 0.2 0.3 0.1 2.2 0.1 2 0.3 0.8 0.3 0.6-0.1 0.4-0.6-0.1-0.7-0.6v-0.3l-0.7 0.6-0.5 0.2-0.7 0.2h-0.8l-0.8-0.4-0.8-0.6-0.5-0.8-0.2-0.8v-1.5l0.3-1.1 0.6-0.8 1-0.5z"/><path class="d" d="m44 54.7h1.3l0.9 0.4 0.7 0.7 0.5 0.8 0.2 0.6v1.3l-0.3 0.9-0.6 0.9-0.8 0.7-1.2 0.4-0.8-0.1-1.2-0.6-0.7-0.8-0.4-0.9-0.1-0.6v-1.2l0.1-0.7 0.5-0.7 0.3-0.5 0.7-0.4z"/><path class="c" d="m122 54.7h0.7l0.9 0.2 0.7 0.6 0.5 0.7 0.3 0.5 0.1 0.5v1.4l-0.3 0.9-0.6 0.8-0.6 0.6-0.6 0.3-0.7 0.2-1-0.1-0.7-0.4-0.8-0.7-0.6-0.8-0.2-0.8v-1.4l0.2-0.8 0.5-0.7 0.7-0.6 0.9-0.4z"/><path class="d" d="m77 54.7h1.1l1.1 0.5 0.7 0.7 0.5 0.9v0.4 1.4l-0.2 0.9-0.5 0.7-0.7 0.7-0.7 0.3-0.3 0.1h-1.2l-0.8-0.4-0.9-0.7-0.4-0.6-0.4-1.3v-0.9l0.4-1.1 0.4-0.7 0.6-0.5 0.9-0.4z"/><path class="f" d="m3.6 52.6h2.4l1 0.3 0.7 0.7 0.4 0.8v1.5l-0.4 0.9-0.6 0.6-0.9 0.4-0.8 0.2h-0.8l-0.8-0.2v3.2l-0.6 0.2-0.4-0.3v-6.8-1.3z"/><path class="d" d="m11.8 54.7h1l0.9 0.4 0.6 0.7 0.3 0.7 0.2 1.1-0.1 0.7-0.1 0.1-1.5 0.1h-1.4l-1.3-0.1 0.2 0.8 0.4 0.7 0.7 0.4h0.3 0.9l1.3-0.4h0.3l-0.1 0.5-0.3 0.5-0.8 0.4-0.5 0.1h-0.8l-1-0.4-0.7-0.5-0.6-0.7-0.4-1-0.1-0.4 0.1-1.3 0.3-1.1 0.6-0.7 1-0.5z"/><path class="d" d="m54.8 53.1l0.4 0.1 0.1 0.1-0.1 1.7h1.3l0.5 0.2 0.2 0.1-0.1 0.5-0.2 0.1h-1.2l-0.2 0.1-0.2 0.5v1.9l0.1 1.1 0.4 0.7 0.3 0.1h0.6 0.8l0.1 0.4-0.5 0.4-0.2 0.1h-1.1l-0.6-0.3-0.5-0.6-0.3-1-0.1-0.6-0.1-2.4-0.7-0.4-0.6-0.2-0.9 0.1-0.8 0.1-0.4 0.5-0.4 0.6-0.1 0.6v3.4l-0.1 0.2h-0.7l-0.4-0.2v-5.5l-0.1-0.4 0.1-0.3h0.5l1 0.4h0.5l0.6-0.4h1l0.8 0.2h0.8l0.1-0.3v-0.9l0.2-0.5z"/><path class="d" d="m29.7 52.5h1l1.4 0.4 0.4 0.3 0.2 0.5-0.3 0.1-2.3-0.4h-0.6l-0.7 0.3-0.3 0.4-0.1 0.2v0.8l0.3 0.4 0.9 0.4 1.4 0.6 0.7 0.4 0.7 0.7 0.3 0.6 0.1 0.9-0.5 1-0.6 0.6-1.1 0.5-0.3 0.1h-1.1l-1.3-0.4-0.7-0.6-0.2-0.4 0.2-0.2h0.5l1 0.5 0.4 0.1h1.3l0.8-0.5 0.4-0.4 0.1-0.6-0.3-0.8-1.2-0.7-1.4-0.6-1.1-0.8-0.3-0.7v-0.7l0.3-0.9 0.4-0.5 0.9-0.4z"/><path class="g" d="m76.7 55.7h1.3l0.6 0.3 0.6 0.7 0.3 0.5 0.1 0.5v0.7l-0.3 0.7-0.6 0.7-0.7 0.5-0.3 0.1h-0.6l-0.7-0.2-0.5-0.5-0.4-0.8-0.2-0.7v-1l0.2-0.6 0.5-0.6z"/><path class="g" d="m44.1 55.6l0.9 0.1 0.9 0.4 0.5 0.7 0.2 0.9v0.8l-0.2 0.8-0.6 0.6-1.1 0.5-0.7-0.1-0.7-0.3-0.5-0.6-0.4-1v-1.2l0.4-0.7 0.3-0.5 0.6-0.3z"/><path class="g" d="m121.9 55.6l0.9 0.1 0.7 0.3 0.5 0.6 0.2 0.7v1.4l-0.4 0.9-0.7 0.6-0.5 0.2h-0.8l-0.8-0.4-0.5-0.6-0.4-1v-1.2l0.3-0.7 0.7-0.6z"/><path class="d" d="m92.6 54.7h0.8l0.4 0.2 0.5 0.7 0.3 1.2 0.1 0.9 0.1 2 0.1 1.3-0.2 0.2h-0.7l-0.3-0.2-0.1-4.1-0.2-1-0.6-0.2h-0.7l-1.1 0.4-0.3 0.4-0.1 0.2v3.1l0.1 1.3-0.3 0.1h-0.8l-0.1-0.2-0.1-1.7v-3.8l0.1-0.7 0.6 0.1 0.6 0.4 0.5-0.1 0.8-0.4z"/><path class="d" d="m70.1 52.7h1.3l2.1 0.1 0.1 0.2-0.3 0.4-0.3 0.2h-3l-0.5-0.1-0.1 2.8 3.4-0.1 0.1 0.4-0.3 0.5-0.2 0.1h-2.9l-0.1 3.9-0.5 0.1-0.4-0.2-0.1-0.1v-8.1h0.1z"/><path class="f" d="m82.1 54.8h0.8l0.1 1 0.1 2.6 0.1 0.9 0.3 0.7 0.5 0.3h0.8l0.9-0.4 0.3-0.3v-0.4l0.1-4.1 0.1-0.2 0.6-0.1 0.3 0.2 0.1 0.6v3l0.2 1.2 0.5 1.1v0.3l-0.7-0.1-1-0.6-0.3 0.2-0.9 0.5-0.5 0.1h-0.7l-0.8-0.4-0.4-0.3-0.4-0.9-0.1-0.6-0.1-4.2z"/><path class="g" d="m36.8 55.6h0.9l0.7 0.3 0.7 0.7 0.2 0.7v1.2l-0.5 1.1-0.7 0.6-0.6 0.2h-0.7l-0.7-0.3-0.4-0.4-0.1-0.3v-2.8l0.2-0.5 0.5-0.3z"/><path class="g" d="m18.9 55.6h0.8l0.7 0.3 0.6 0.7 0.2 0.5 0.1 0.5v0.8l-0.3 0.8-0.6 0.7-0.7 0.4-0.6 0.1-1.1-0.3-0.4-0.5v-0.5-2.5l0.2-0.4 0.4-0.3z"/><path class="g" d="m106 55.7h1.5l0.7 0.3 0.2 0.8v2.1l-0.2 0.7-0.3 0.5-0.6 0.3h-1l-0.6-0.3-0.6-0.8-0.3-0.8v-1.4l0.3-0.7 0.6-0.5z"/><path class="f" d="m130 54.7h0.8l0.6 0.4 0.3 0.8 0.1 0.3v0.6h0.2l0.1 1.4v2.7h-0.2v0.2h-0.8l-0.1-4.4-0.2-0.8-0.3-0.1-0.9-0.1-1.1 0.3-0.5 0.3-0.1 0.9v4h-0.7l-0.4-0.2v-5.8l0.1-0.1 1.5-0.1z"/><path class="g" d="m98.5 55.6h1.1l0.7 0.3 0.4 0.5 0.1 0.4v2l-0.2 0.9-0.5 0.6-0.5 0.1h-0.7l-0.7-0.4-0.5-0.6-0.4-1v-1.2l0.5-1.1 0.5-0.4z"/><path class="d" d="m60.9 54.7h0.9l0.8 0.2 0.3 0.4 0.1 0.5h-1l-0.4-0.1h-1.3l-0.6 0.2-0.1 0.6 0.2 0.4 0.4 0.2 1.7 0.7 0.7 0.6 0.5 0.7-0.1 0.8-0.6 0.8-0.9 0.5-0.9 0.2-0.9-0.1-0.7-0.4-0.3-0.5-0.1-0.4 0.3-0.1 1.2 0.5 0.8-0.1 0.9-0.3 0.2-0.2-0.1-0.7-0.7-0.5-1.7-0.8-0.6-0.6-0.2-0.6 0.1-0.7 0.4-0.6 0.9-0.5z"/><path class="d" d="m112.5 53.1l0.5 0.2 0.1 0.1v1.7l1.2-0.1 0.4 0.2v0.4l-0.4 0.3h-1l-0.2-0.1v0.4l-0.1 0.1v2.8l0.3 0.9 0.4 0.3h0.3 1.1l0.1 0.5-0.4 0.3-0.5 0.2h-0.8l-0.7-0.4-0.6-0.6-0.3-0.9v-0.4-3l-0.8-0.2-0.3-0.2v-0.3l0.8-0.2 0.3 0.1 0.2-1.8z"/><path class="g" d="m4.2 53.4h1.6l0.7 0.3 0.6 0.7 0.2 0.5v0.7l-0.2 0.5-0.7 0.6-0.8 0.4h-1.3l-0.4-0.3-0.1-0.2v-2.1l0.2-0.9z"/><path class="g" d="m11.4 55.7h1.3l0.6 0.3 0.6 0.8v0.7l-0.5 0.2h-2.8l-0.4-0.4 0.1-0.7 0.5-0.6z"/><path class="d" d="m116.8 54.7h0.6v0.1l0.1 3.9 0.2 2.6-0.7-0.1-0.3-0.2-0.1-1.8-0.1-4.3z"/><path class="d" d="m116.8 52.5h0.6l0.2 0.2-0.1 0.6-0.5 0.3-0.4-0.2-0.2-0.1v-0.6z"/><path class="b" d="m131.4 55.4h0.2l0.2 0.8 0.1 0.6v0.9l-0.3-0.5-0.3-0.6-0.1-0.4 0.2-0.3z"/><path class="b" d="m7.8 54.1l0.3 0.3v1.2h-0.3l-0.2-0.3h-0.2l-0.1-0.7 0.4 0.1z"/><path class="b" d="m21.6 56.3l0.2 0.1 0.2 0.7 0.1 0.6-0.3-0.2-0.2-0.3z"/><path class="b" d="m16.3 54.9h0.3l-0.1 1-0.2-0.4-0.1-0.5z"/><path class="b" d="m116.8 52.5h0.6v0.3h-0.8l-0.1 0.2 0.1-0.3z"/></svg>